<?xml version="1.0" encoding="UTF-8" standalone="no"?>
<!DOCTYPE svg PUBLIC "-//W3C//DTD SVG 1.0//EN" "http://www.w3.org/TR/2001/PR-SVG-20010719/DTD/svg10.dtd">
<svg width="27cm" height="11cm" viewBox="502 146 540 202" xmlns="http://www.w3.org/2000/svg" xmlns:xlink="http://www.w3.org/1999/xlink">
  <g>
    <rect style="fill: #ffffff" x="503.1" y="147.677" width="271.8" height="28"/>
    <rect style="fill: none; fill-opacity:0; stroke-width: 2; stroke: #000000" x="503.1" y="147.677" width="271.8" height="28"/>
    <text font-size="16" style="fill: #000000;text-anchor:middle;font-family:sans-serif;font-style:italic;font-weight:700" x="639" y="166.677">GameEntity</text>
    <rect style="fill: #ffffff" x="503.1" y="175.677" width="271.8" height="20"/>
    <rect style="fill: none; fill-opacity:0; stroke-width: 2; stroke: #000000" x="503.1" y="175.677" width="271.8" height="20"/>
    <text font-size="12.8" style="fill: #000000;text-anchor:start;font-family:monospace;font-style:normal;font-weight:normal" x="506.1" y="189.677">-state: EntityState</text>
    <rect style="fill: #ffffff" x="503.1" y="195.677" width="271.8" height="20"/>
    <rect style="fill: none; fill-opacity:0; stroke-width: 2; stroke: #000000" x="503.1" y="195.677" width="271.8" height="20"/>
    <text font-size="12.8" style="fill: #000000;text-anchor:start;font-family:monospace;font-style:italic;font-weight:normal" x="506.1" y="209.677">#createInitialState(): EntityState</text>
  </g>
  <g>
    <rect style="fill: #ffffff" x="503.1" y="299.528" width="271.8" height="28"/>
    <rect style="fill: none; fill-opacity:0; stroke-width: 2; stroke: #000000" x="503.1" y="299.528" width="271.8" height="28"/>
    <text font-size="16" style="fill: #000000;text-anchor:middle;font-family:sans-serif;font-style:normal;font-weight:700" x="639" y="318.528">SpaceShip</text>
    <rect style="fill: #ffffff" x="503.1" y="327.528" width="271.8" height="20"/>
    <rect style="fill: none; fill-opacity:0; stroke-width: 2; stroke: #000000" x="503.1" y="327.528" width="271.8" height="20"/>
    <text font-size="12.8" style="fill: #000000;text-anchor:start;font-family:monospace;font-style:normal;font-weight:normal" x="506.1" y="341.528">+createInitialState(): EntityState</text>
  </g>
  <g>
    <polyline style="fill: none; fill-opacity:0; stroke-width: 2; stroke: #000000" points="639,233.913 639,232.677 639,298.528 639,299.528 "/>
    <polygon style="fill: #ffffff" points="647,233.913 639,217.913 631,233.913 "/>
    <polygon style="fill: none; fill-opacity:0; stroke-width: 2; stroke: #000000" points="647,233.913 639,217.913 631,233.913 "/>
  </g>
  <g>
    <rect style="fill: #ffffff" x="886.162" y="147.677" width="112.05" height="28"/>
    <rect style="fill: none; fill-opacity:0; stroke-width: 2; stroke: #000000" x="886.162" y="147.677" width="112.05" height="28"/>
    <text font-size="16" style="fill: #000000;text-anchor:middle;font-family:sans-serif;font-style:italic;font-weight:700" x="942.187" y="166.677">EntityState</text>
  </g>
  <g>
    <rect style="fill: #ffffff" x="843.75" y="309.528" width="197.1" height="28"/>
    <rect style="fill: none; fill-opacity:0; stroke-width: 2; stroke: #000000" x="843.75" y="309.528" width="197.1" height="28"/>
    <text font-size="16" style="fill: #000000;text-anchor:middle;font-family:sans-serif;font-style:normal;font-weight:700" x="942.3" y="328.528">SpaceShipAliveState</text>
  </g>
  <g>
    <polyline style="fill: none; fill-opacity:0; stroke-width: 2; stroke: #000000" points="942.187,193.913 942.187,250.603 942.3,250.603 942.3,309.528 "/>
    <polygon style="fill: #ffffff" points="950.187,193.913 942.187,177.913 934.187,193.913 "/>
    <polygon style="fill: none; fill-opacity:0; stroke-width: 2; stroke: #000000" points="950.187,193.913 942.187,177.913 934.187,193.913 "/>
  </g>
  <g>
    <polyline style="fill: none; fill-opacity:0; stroke-width: 2; stroke-dasharray: 8; stroke: #000000" points="776.204,323.338 805.977,323.338 805.977,323.528 837.045,323.528 "/>
    <polyline style="fill: none; fill-opacity:0; stroke-width: 2; stroke: #000000" points="824.397,328.528 840.397,323.528 824.397,318.528 "/>
  </g>
</svg>
