<?xml version="1.0" encoding="UTF-8" standalone="no"?>
<!DOCTYPE svg PUBLIC "-//W3C//DTD SVG 1.0//EN" "http://www.w3.org/TR/2001/PR-SVG-20010719/DTD/svg10.dtd">
<svg width="30cm" height="16cm" viewBox="171 25 597 304" xmlns="http://www.w3.org/2000/svg" xmlns:xlink="http://www.w3.org/1999/xlink">
  <g>
    <rect style="fill: #ffffff" x="503.1" y="210.677" width="264.1" height="28"/>
    <rect style="fill: none; fill-opacity:0; stroke-width: 2; stroke: #000000" x="503.1" y="210.677" width="264.1" height="28"/>
    <text font-size="16" style="fill: #000000;text-anchor:middle;font-family:sans-serif;font-style:italic;font-weight:700" x="635.15" y="229.677">GameEntity</text>
    <rect style="fill: #ffffff" x="503.1" y="238.677" width="264.1" height="20"/>
    <rect style="fill: none; fill-opacity:0; stroke-width: 2; stroke: #000000" x="503.1" y="238.677" width="264.1" height="20"/>
    <text font-size="12.8" style="fill: #000000;text-anchor:start;font-family:monospace;font-style:normal;font-weight:normal" x="506.1" y="252.677">-state: EntityState</text>
    <rect style="fill: #ffffff" x="503.1" y="258.677" width="264.1" height="20"/>
    <rect style="fill: none; fill-opacity:0; stroke-width: 2; stroke: #000000" x="503.1" y="258.677" width="264.1" height="20"/>
    <text font-size="12.8" style="fill: #000000;text-anchor:start;font-family:monospace;font-style:italic;font-weight:normal" x="506.1" y="272.677">+collideWith(c:Collideable): void</text>
  </g>
  <g>
    <rect style="fill: #ffffff" x="203.3" y="26.9" width="187.1" height="44"/>
    <rect style="fill: none; fill-opacity:0; stroke-width: 2; stroke: #000000" x="203.3" y="26.9" width="187.1" height="44"/>
    <text font-size="12.8" style="fill: #000000;text-anchor:middle;font-family:monospace;font-style:normal;font-weight:normal" x="296.85" y="42.9">&lt;&lt;Interface&gt;&gt;</text>
    <text font-size="16" style="fill: #000000;text-anchor:middle;font-family:sans-serif;font-style:italic;font-weight:700" x="296.85" y="61.9">CollisionMediator</text>
    <rect style="fill: #ffffff" x="203.3" y="70.9" width="187.1" height="20"/>
    <rect style="fill: none; fill-opacity:0; stroke-width: 2; stroke: #000000" x="203.3" y="70.9" width="187.1" height="20"/>
    <text font-size="12.8" style="fill: #000000;text-anchor:start;font-family:monospace;font-style:italic;font-weight:normal" x="206.3" y="84.9">+checkCollision(): void</text>
  </g>
  <g>
    <rect style="fill: #ffffff" x="503.07" y="26.9" width="264.1" height="44"/>
    <rect style="fill: none; fill-opacity:0; stroke-width: 2; stroke: #000000" x="503.07" y="26.9" width="264.1" height="44"/>
    <text font-size="12.8" style="fill: #000000;text-anchor:middle;font-family:monospace;font-style:normal;font-weight:normal" x="635.12" y="42.9">&lt;&lt;Interface&gt;&gt;</text>
    <text font-size="16" style="fill: #000000;text-anchor:middle;font-family:sans-serif;font-style:italic;font-weight:700" x="635.12" y="61.9">Collideable</text>
    <rect style="fill: #ffffff" x="503.07" y="70.9" width="264.1" height="36"/>
    <rect style="fill: none; fill-opacity:0; stroke-width: 2; stroke: #000000" x="503.07" y="70.9" width="264.1" height="36"/>
    <text font-size="12.8" style="fill: #000000;text-anchor:start;font-family:monospace;font-style:italic;font-weight:normal" x="506.07" y="84.9">+collideWith(c:Collideable): void</text>
    <text font-size="12.8" style="fill: #000000;text-anchor:start;font-family:monospace;font-style:italic;font-weight:normal" x="506.07" y="100.9">+getBoundCircle(): BoundCircle</text>
  </g>
  <g>
    <rect style="fill: #ffffff" x="172.8" y="188.677" width="248.6" height="28"/>
    <rect style="fill: none; fill-opacity:0; stroke-width: 2; stroke: #000000" x="172.8" y="188.677" width="248.6" height="28"/>
    <text font-size="16" style="fill: #000000;text-anchor:middle;font-family:sans-serif;font-style:normal;font-weight:700" x="297.1" y="207.677">CollisionConcreteMediator</text>
    <rect style="fill: #ffffff" x="172.8" y="216.677" width="248.6" height="20"/>
    <rect style="fill: none; fill-opacity:0; stroke-width: 2; stroke: #000000" x="172.8" y="216.677" width="248.6" height="20"/>
    <text font-size="12.8" style="fill: #000000;text-anchor:start;font-family:monospace;font-style:normal;font-weight:normal" x="175.8" y="230.677">+checkCollision(): void</text>
  </g>
  <g>
    <polyline style="fill: none; fill-opacity:0; stroke-width: 2; stroke: #000000" points="421.4,202.677 454.75,202.677 454.75,224.677 498.628,224.677 "/>
    <polyline style="fill: none; fill-opacity:0; stroke-width: 2; stroke: #000000" points="484.864,232.677 500.864,224.677 484.864,216.677 "/>
    <text font-size="12.7998" style="fill: #000000;text-anchor:start;font-family:monospace;font-style:normal;font-weight:normal" x="456.75" y="209.677"/>
    <text font-size="12.7998" style="fill: #000000;text-anchor:start;font-family:monospace;font-style:normal;font-weight:normal" x="425.4" y="198.677"/>
    <text font-size="12.7998" style="fill: #000000;text-anchor:end;font-family:monospace;font-style:normal;font-weight:normal" x="483.1" y="220.677"/>
  </g>
  <g>
    <polyline style="fill: none; fill-opacity:0; stroke-width: 2; stroke-dasharray: 8; stroke: #000000" points="297.1,188.677 297.1,138.686 296.85,138.686 296.85,97.6052 "/>
    <polyline style="fill: none; fill-opacity:0; stroke-width: 2; stroke: #000000" points="301.85,110.253 296.85,94.2526 291.85,110.253 "/>
    <text font-size="12.7998" style="fill: #000000;text-anchor:middle;font-family:monospace;font-style:normal;font-weight:normal" x="296.975" y="134.686">implements</text>
  </g>
  <g>
    <polyline style="fill: none; fill-opacity:0; stroke-width: 2; stroke-dasharray: 8; stroke: #000000" points="635.15,209.672 635.15,159.497 635.12,159.497 635.12,113.605 "/>
    <polyline style="fill: none; fill-opacity:0; stroke-width: 2; stroke: #000000" points="640.12,126.253 635.12,110.253 630.12,126.253 "/>
    <text font-size="12.7998" style="fill: #000000;text-anchor:middle;font-family:monospace;font-style:normal;font-weight:normal" x="635.135" y="155.497">implements</text>
  </g>
  <g>
    <polygon style="fill: #ffffff" points="497,294 710.9,294 722.9,306 722.9,328 497,328 "/>
    <polygon style="fill: none; fill-opacity:0; stroke-width: 2; stroke: #000000" points="497,294 710.9,294 722.9,306 722.9,328 497,328 "/>
    <polyline style="fill: none; fill-opacity:0; stroke-width: 1; stroke: #000000" points="710.9,294 710.9,306 722.9,306 "/>
    <text font-size="12.8" style="fill: #000000;text-anchor:start;font-family:monospace;font-style:normal;font-weight:normal" x="504" y="318.9">
      <tspan x="504" y="318.9">state.collideWith(this, c);</tspan>
    </text>
  </g>
  <g>
    <polyline style="fill: none; fill-opacity:0; stroke-width: 2; stroke-dasharray: 4; stroke: #000000" points="497,311 476,311 476,268.677 492.1,268.677 "/>
    <path style="fill: #ffffff" d="M 502.1 268.677 C 502.1,271.177 499.6,273.677 497.1,273.677 C 494.6,273.677 492.1,271.177 492.1,268.677 C 492.1,266.177 494.6,263.677 497.1,263.677 C 499.6,263.677 502.1,266.177 502.1,268.677z"/>
    <path style="fill: none; fill-opacity:0; stroke-width: 2; stroke: #000000" d="M 502.1 268.677 C 502.1,271.177 499.6,273.677 497.1,273.677 C 494.6,273.677 492.1,271.177 492.1,268.677 C 492.1,266.177 494.6,263.677 497.1,263.677 C 499.6,263.677 502.1,266.177 502.1,268.677"/>
  </g>
</svg>
