<?xml version="1.0" encoding="UTF-8" standalone="no"?>
<!DOCTYPE svg PUBLIC "-//W3C//DTD SVG 1.0//EN" "http://www.w3.org/TR/2001/PR-SVG-20010719/DTD/svg10.dtd">
<svg width="46cm" height="19cm" viewBox="209 82 908 378" xmlns="http://www.w3.org/2000/svg" xmlns:xlink="http://www.w3.org/1999/xlink">
  <g>
    <rect style="fill: #ffffff" x="232.462" y="216.292" width="279.5" height="28"/>
    <rect style="fill: none; fill-opacity:0; stroke-width: 2; stroke: #000000" x="232.462" y="216.292" width="279.5" height="28"/>
    <text font-size="16" style="fill: #000000;text-anchor:middle;font-family:sans-serif;font-style:italic;font-weight:700" x="372.212" y="235.292">GameEntity</text>
    <rect style="fill: #ffffff" x="232.462" y="244.292" width="279.5" height="36"/>
    <rect style="fill: none; fill-opacity:0; stroke-width: 2; stroke: #000000" x="232.462" y="244.292" width="279.5" height="36"/>
    <text font-size="12.8" style="fill: #000000;text-anchor:start;font-family:monospace;font-style:normal;font-weight:normal" x="235.462" y="258.292">#x: int</text>
    <text font-size="12.8" style="fill: #000000;text-anchor:start;font-family:monospace;font-style:normal;font-weight:normal" x="235.462" y="274.292">#y: int</text>
    <rect style="fill: #ffffff" x="232.462" y="280.292" width="279.5" height="36"/>
    <rect style="fill: none; fill-opacity:0; stroke-width: 2; stroke: #000000" x="232.462" y="280.292" width="279.5" height="36"/>
    <text font-size="12.8" style="fill: #000000;text-anchor:start;font-family:monospace;font-style:normal;font-weight:normal" x="235.462" y="294.292">#setStrategy(s:DrawStrategy): void</text>
    <text font-size="12.8" style="fill: #000000;text-anchor:start;font-family:monospace;font-style:normal;font-weight:normal" x="235.462" y="310.292">+draw(env:GraphicEnvironment): void</text>
  </g>
  <g>
    <rect style="fill: #ffffff" x="636.45" y="304.314" width="479.7" height="28"/>
    <rect style="fill: none; fill-opacity:0; stroke-width: 2; stroke: #000000" x="636.45" y="304.314" width="479.7" height="28"/>
    <text font-size="16" style="fill: #000000;text-anchor:middle;font-family:sans-serif;font-style:italic;font-weight:700" x="876.3" y="323.314">DrawStrategy</text>
    <rect style="fill: #ffffff" x="636.45" y="332.314" width="479.7" height="20"/>
    <rect style="fill: none; fill-opacity:0; stroke-width: 2; stroke: #000000" x="636.45" y="332.314" width="479.7" height="20"/>
    <text font-size="12.8" style="fill: #000000;text-anchor:start;font-family:monospace;font-style:italic;font-weight:normal" x="639.45" y="346.314">+drawEntities(env:GraphicEnvironment,ent:List&lt;GraphicEntity&gt;)</text>
  </g>
  <g>
    <polyline style="fill: none; fill-opacity:0; stroke-width: 2; stroke: #000000" points="537.134,290.292 580.957,290.292 580.957,342.314 631.978,342.314 "/>
    <polygon style="fill: #ffffff" points="511.962,290.292 525.962,285.492 539.962,290.292 525.962,295.092 "/>
    <polygon style="fill: none; fill-opacity:0; stroke-width: 2; stroke: #000000" points="511.962,290.292 525.962,285.492 539.962,290.292 525.962,295.092 "/>
    <polyline style="fill: none; fill-opacity:0; stroke-width: 2; stroke: #000000" points="618.214,350.314 634.214,342.314 618.214,334.314 "/>
    <text font-size="12.7998" style="fill: #000000;text-anchor:start;font-family:monospace;font-style:normal;font-weight:normal" x="582.957" y="312.303"/>
    <text font-size="12.7998" style="fill: #000000;text-anchor:start;font-family:monospace;font-style:normal;font-weight:normal" x="543.962" y="286.292"> strategy</text>
    <text font-size="12.7998" style="fill: #000000;text-anchor:start;font-family:monospace;font-style:normal;font-weight:normal" x="543.962" y="302.292"/>
    <text font-size="12.7998" style="fill: #000000;text-anchor:end;font-family:monospace;font-style:normal;font-weight:normal" x="616.45" y="338.314"/>
  </g>
  <g>
    <polygon style="fill: #ffffff" points="232.624,372.1 492.724,372.1 504.724,384.1 504.724,438.1 232.624,438.1 "/>
    <polygon style="fill: none; fill-opacity:0; stroke-width: 2; stroke: #000000" points="232.624,372.1 492.724,372.1 504.724,384.1 504.724,438.1 232.624,438.1 "/>
    <polyline style="fill: none; fill-opacity:0; stroke-width: 1; stroke: #000000" points="492.724,372.1 492.724,384.1 504.724,384.1 "/>
    <text font-size="12.8" style="fill: #000000;text-anchor:start;font-family:monospace;font-style:normal;font-weight:normal" x="239.624" y="397">
      <tspan x="239.624" y="397">strategy.drawEntity(</tspan>
      <tspan x="239.624" y="413">  </tspan>
      <tspan x="239.624" y="429">env, state.getGraphicEntities());</tspan>
    </text>
  </g>
  <g>
    <polyline style="fill: none; fill-opacity:0; stroke-width: 2; stroke-dasharray: 8; stroke: #000000" points="232.624,405.1 210.8,405.1 210.8,306.292 221.462,306.292 "/>
    <path style="fill: #ffffff" d="M 231.462 306.292 C 231.462,308.792 228.962,311.292 226.462,311.292 C 223.962,311.292 221.462,308.792 221.462,306.292 C 221.462,303.792 223.962,301.292 226.462,301.292 C 228.962,301.292 231.462,303.792 231.462,306.292z"/>
    <path style="fill: none; fill-opacity:0; stroke-width: 2; stroke: #000000" d="M 231.462 306.292 C 231.462,308.792 228.962,311.292 226.462,311.292 C 223.962,311.292 221.462,308.792 221.462,306.292 C 221.462,303.792 223.962,301.292 226.462,301.292 C 228.962,301.292 231.462,303.792 231.462,306.292"/>
  </g>
  <g>
    <polyline style="fill: none; fill-opacity:0; stroke-width: 2; stroke: #000000" points="876.3,370.55 876.3,400.107 776.875,400.107 776.875,431.9 "/>
    <polygon style="fill: #ffffff" points="884.3,370.55 876.3,354.55 868.3,370.55 "/>
    <polygon style="fill: none; fill-opacity:0; stroke-width: 2; stroke: #000000" points="884.3,370.55 876.3,354.55 868.3,370.55 "/>
  </g>
  <g>
    <polyline style="fill: none; fill-opacity:0; stroke-width: 2; stroke: #000000" points="876.3,371.052 876.3,400.106 973.675,400.106 973.675,431.395 "/>
    <polygon style="fill: #ffffff" points="884.3,371.052 876.3,355.052 868.3,371.052 "/>
    <polygon style="fill: none; fill-opacity:0; stroke-width: 2; stroke: #000000" points="884.3,371.052 876.3,355.052 868.3,371.052 "/>
  </g>
  <g>
    <rect style="fill: #ffffff" x="716.3" y="431.9" width="121.15" height="28"/>
    <rect style="fill: none; fill-opacity:0; stroke-width: 2; stroke: #000000" x="716.3" y="431.9" width="121.15" height="28"/>
    <text font-size="16" style="fill: #000000;text-anchor:middle;font-family:sans-serif;font-style:normal;font-weight:700" x="776.875" y="450.9">DrawSprites</text>
  </g>
  <g>
    <rect style="fill: #ffffff" x="911.3" y="431.9" width="124.75" height="28"/>
    <rect style="fill: none; fill-opacity:0; stroke-width: 2; stroke: #000000" x="911.3" y="431.9" width="124.75" height="28"/>
    <text font-size="16" style="fill: #000000;text-anchor:middle;font-family:sans-serif;font-style:normal;font-weight:700" x="973.675" y="450.9">DrawVectors</text>
  </g>
  <g>
    <rect style="fill: #ffffff" x="232.462" y="83.9" width="279.5" height="44"/>
    <rect style="fill: none; fill-opacity:0; stroke-width: 2; stroke: #000000" x="232.462" y="83.9" width="279.5" height="44"/>
    <text font-size="12.8" style="fill: #000000;text-anchor:middle;font-family:monospace;font-style:normal;font-weight:normal" x="372.212" y="99.9">&lt;&lt;Interface&gt;&gt;</text>
    <text font-size="16" style="fill: #000000;text-anchor:middle;font-family:sans-serif;font-style:italic;font-weight:700" x="372.212" y="118.9">Drawable</text>
    <rect style="fill: #ffffff" x="232.462" y="127.9" width="279.5" height="20"/>
    <rect style="fill: none; fill-opacity:0; stroke-width: 2; stroke: #000000" x="232.462" y="127.9" width="279.5" height="20"/>
    <text font-size="12.8" style="fill: #000000;text-anchor:start;font-family:monospace;font-style:italic;font-weight:normal" x="235.462" y="141.9">+draw(env:GraphicEnvironment): void</text>
  </g>
  <g>
    <polyline style="fill: none; fill-opacity:0; stroke-width: 2; stroke-dasharray: 8; stroke: #000000" points="372.212,166.136 372.212,185.781 372.212,185.781 372.212,216.292 "/>
    <polygon style="fill: #ffffff" points="380.212,166.136 372.212,150.136 364.212,166.136 "/>
    <polygon style="fill: none; fill-opacity:0; stroke-width: 2; stroke: #000000" points="380.212,166.136 372.212,150.136 364.212,166.136 "/>
    <text font-size="12.7998" style="fill: #000000;text-anchor:middle;font-family:monospace;font-style:normal;font-weight:normal" x="372.212" y="181.781">implements</text>
  </g>
  <g>
    <rect style="fill: #ffffff" x="709.6" y="179.9" width="333.4" height="28"/>
    <rect style="fill: none; fill-opacity:0; stroke-width: 2; stroke: #000000" x="709.6" y="179.9" width="333.4" height="28"/>
    <text font-size="16" style="fill: #000000;text-anchor:middle;font-family:sans-serif;font-style:italic;font-weight:700" x="876.3" y="198.9">EntityState</text>
    <rect style="fill: #ffffff" x="709.6" y="207.9" width="333.4" height="20"/>
    <rect style="fill: none; fill-opacity:0; stroke-width: 2; stroke: #000000" x="709.6" y="207.9" width="333.4" height="20"/>
    <text font-size="12.8" style="fill: #000000;text-anchor:start;font-family:monospace;font-style:italic;font-weight:normal" x="712.6" y="221.9">+getGraphicEntities(): List&lt;GraphicEntity&gt;</text>
  </g>
  <g>
    <polyline style="fill: none; fill-opacity:0; stroke-width: 2; stroke: #000000" points="537.134,254.292 618,254.292 618,193.9 705.128,193.9 "/>
    <polygon style="fill: #ffffff" points="511.962,254.292 525.962,249.492 539.962,254.292 525.962,259.092 "/>
    <polygon style="fill: none; fill-opacity:0; stroke-width: 2; stroke: #000000" points="511.962,254.292 525.962,249.492 539.962,254.292 525.962,259.092 "/>
    <polyline style="fill: none; fill-opacity:0; stroke-width: 2; stroke: #000000" points="691.364,201.9 707.364,193.9 691.364,185.9 "/>
    <text font-size="12.7998" style="fill: #000000;text-anchor:start;font-family:monospace;font-style:normal;font-weight:normal" x="620" y="220.096"/>
    <text font-size="12.7998" style="fill: #000000;text-anchor:start;font-family:monospace;font-style:normal;font-weight:normal" x="543.962" y="250.292"> state</text>
    <text font-size="12.7998" style="fill: #000000;text-anchor:start;font-family:monospace;font-style:normal;font-weight:normal" x="543.962" y="266.292"/>
    <text font-size="12.7998" style="fill: #000000;text-anchor:end;font-family:monospace;font-style:normal;font-weight:normal" x="689.6" y="189.9"/>
  </g>
</svg>
